<?xml version="1.0" encoding="UTF-8" standalone="no"?>
<!-- Created with Inkscape (http://www.inkscape.org/) -->

<svg
   version="1.1"
   id="svg2"
   width="322.66641"
   height="322.66641"
   viewBox="0 0 322.66641 322.66641"
   sodipodi:docname="logo.svg"
   inkscape:version="1.2 (dc2aedaf03, 2022-05-15)"
   xmlns:inkscape="http://www.inkscape.org/namespaces/inkscape"
   xmlns:sodipodi="http://sodipodi.sourceforge.net/DTD/sodipodi-0.dtd"
   xmlns="http://www.w3.org/2000/svg"
   xmlns:svg="http://www.w3.org/2000/svg">
  <defs
     id="defs6" />
  <sodipodi:namedview
     id="namedview4"
     pagecolor="#ffffff"
     bordercolor="#000000"
     borderopacity="0.25"
     inkscape:showpageshadow="2"
     inkscape:pageopacity="0.0"
     inkscape:pagecheckerboard="0"
     inkscape:deskcolor="#d1d1d1"
     showgrid="false"
     inkscape:zoom="2.6188037"
     inkscape:cx="161.14228"
     inkscape:cy="161.52413"
     inkscape:window-width="1920"
     inkscape:window-height="1011"
     inkscape:window-x="0"
     inkscape:window-y="32"
     inkscape:window-maximized="1"
     inkscape:current-layer="g10">
    <inkscape:page
       x="0"
       y="0"
       id="page8"
       width="322.66641"
       height="322.66641" />
  </sodipodi:namedview>
  <g
     id="g10"
     inkscape:groupmode="layer"
     inkscape:label="Page 1"
     transform="matrix(1.3333333,0,0,-1.3333333,1.3333333,321.33307)">
    <path
       d="M 183.8171,119.7969 C 171.2965,97.3806 147.3412,82.2203 119.8412,82.2203 c -40.4462,0 -73.2342,32.7881 -73.2342,73.2342 0,22.3521 10.017,42.3615 25.8029,55.7944 l 9.2744,-12.5604 C 69.7209,188.1224 62.1737,172.671 62.1737,155.4545 c 0,-31.8489 25.8185,-57.6674 57.6675,-57.6674 21.6544,0 40.5178,11.9378 50.377,29.5894 z m -16.5447,91.452 c 6.6427,-5.6526 12.2636,-12.4699 16.5467,-20.136 l -13.5995,-7.5795 c -3.1977,5.7234 -7.342,10.8456 -12.2216,15.1551 z"
       style="fill:#ebbb0f;fill-opacity:1;fill-rule:evenodd;stroke:none"
       id="path12" />
    <path
       d="m 120.5799,228.6848 h 0.0241 l 0.0209,-3e-4 c 1.0049,-0.0108 2.005,-0.0414 2.9997,-0.0922 l 0.0113,-2e-4 0.002,-3e-4 0.0113,-6e-4 c 0.2395,-0.0125 0.4788,-0.0258 0.7177,-0.0402 l 0.0219,-10e-4 h 0.002 c 0.9975,-0.0612 1.9902,-0.1425 2.9769,-0.2432 l 0.0125,-0.001 0.004,-6e-4 0.007,-8e-4 0.2324,-0.0241 v -9e-4 c 13.2897,-1.4045 25.5181,-6.3643 35.7188,-13.9096 l -9.2469,-12.5229 c -7.607,5.6274 -16.6467,9.4281 -26.4719,10.7544 V 103.373 c -2.5398,-0.3761 -5.1389,-0.5711 -7.7833,-0.5711 -2.6445,0 -5.2436,0.195 -7.7831,0.5711 V 212.6013 C 102.2317,211.275 93.192,207.4743 85.585,201.8469 l -9.2469,12.5229 c 10.2007,7.5456 22.4294,12.5051 35.7191,13.9096 v 9e-4 l 0.2285,0.0238 0.0113,0.001 0.004,6e-4 0.0164,0.001 c 0.9853,0.1006 1.9763,0.182 2.973,0.2429 h 0.002 l 0.0218,0.001 c 0.2389,0.0144 0.4785,0.0277 0.718,0.0402 l 0.0113,6e-4 0.002,3e-4 0.0114,2e-4 c 0.9946,0.0505 1.9947,0.0814 2.9996,0.0922 l 0.0212,3e-4 h 0.0239 c 0.246,0.002 0.4921,0.004 0.7387,0.004 0.2466,0 0.4926,-0.001 0.7387,-0.004"
       style="fill:#000000;fill-opacity:1;fill-rule:evenodd;stroke:none"
       id="path14" />
    <path
       d="m 36.5647,43.5189 c -2.3052,1.0446 -2.3772,1.1886 -4.8266,2.4491 -1.2966,-2.4491 -3.8177,-3.998 -6.6991,-3.998 -4.2143,0 -7.636,3.4217 -7.636,7.636 0,4.178 3.4217,7.6357 7.636,7.6357 2.7734,0 5.2225,-1.5128 6.4831,-3.7097 2.4491,1.1886 2.6294,1.2966 4.8266,2.4491 -2.1972,3.926 -6.3754,6.6632 -11.3097,6.6632 -7.2037,0 -13.0385,-5.9069 -13.0385,-13.0383 0,-7.2037 5.8348,-13.0385 13.0385,-13.0385 5.0785,0 9.3285,2.8094 11.5257,6.9514 z m 17.937,2.6294 c 4.286,0.9363 6.1229,4.466 6.1229,7.96 0,4.178 -2.4852,8.248 -8.9683,8.248 H 40.0584 V 36.6395 h 5.6908 V 45.86 h 2.7734 l 6.4831,-9.2205 h 6.9157 l -7.2037,9.5088 z M 50.1435,57.962 c 2.7014,0 4.9345,-0.5043 4.9345,-3.8537 0,-3.2777 -2.2331,-3.89 -4.9345,-3.89 H 45.7492 V 57.962 Z M 70.8897,46.9046 h 11.7416 v 5.0065 H 70.8897 V 57.71 h 13.2905 v 4.7543 H 65.4148 V 36.6395 h 19.99 v 4.7543 H 70.8897 Z m 18.585,-10.2651 h 5.6549 v 25.7168 h -5.6549 z m 34.7213,13.7228 c -4.4302,0 -9.5088,0.036 -13.1465,0.036 V 45.644 c 0,-0.036 0.3243,-0.036 1.0086,-0.036 1.4405,0 4.07,0.036 5.2225,0.036 h 0.5763 c -1.0446,-2.4494 -3.926,-3.89 -6.8074,-3.89 -4.3223,0 -7.78,3.4217 -7.78,7.78 0,4.322 3.4577,7.7797 7.78,7.7797 2.8814,0 5.3306,-1.4766 6.6634,-3.7817 2.5211,1.2606 2.7011,1.3686 4.9703,2.5211 -2.3052,3.998 -6.6631,6.7714 -11.6337,6.7714 -7.3117,0 -13.2905,-5.9791 -13.2905,-13.2905 0,-7.3477 5.9788,-13.3268 13.2905,-13.3268 5.0066,0 9.4728,2.7734 11.6697,6.9154 1.3328,1.7289 1.4768,6.4834 1.4768,7.2397 z m 19.918,-13.6508 h 5.5468 v 25.7168 h -5.5468 v -9.2566 h -11.922 v 9.3286 h -5.5108 V 36.7115 h 5.5108 v 10.9494 h 11.922 z m 16.5682,-0.072 h 5.6548 V 57.602 h 8.104 v 4.7543 H 152.5059 V 57.638 h 8.1763 z m 41.7807,12.9665 c 0,7.3837 -6.0152,13.3265 -13.3268,13.3265 -7.3474,0 -13.2906,-5.9428 -13.2906,-13.3265 0,-7.3477 5.9432,-13.2908 13.2906,-13.2908 7.3116,0 13.3268,5.9431 13.3268,13.2908 z m -13.3268,7.8877 c 4.2862,0 7.7799,-3.6017 7.7799,-7.8877 0,-4.2863 -3.4937,-7.852 -7.7799,-7.852 -4.286,0 -7.8517,3.5657 -7.8517,7.852 0,4.286 3.5657,7.8877 7.8517,7.8877 z m 34.073,-20.8542 h 4.7902 v 25.7888 h -4.7902 V 46.3884 L 211.7194,62.4283 H 205.236 V 36.6395 h 4.9346 v 17.7687 z"
       style="fill:#000000;fill-opacity:1;fill-rule:evenodd;stroke:none"
       id="path16" />
    <path
       d="m 51.8088,11.3114 h 3.4974 v 12.9645 h 5.0119 v 2.9404 H 46.7521 V 24.298 h 5.0567 z m 27.0102,5.8807 c 2.651,0.5791 3.7871,2.7624 3.7871,4.923 0,2.584 -1.5372,5.1012 -5.5468,5.1012 H 69.8865 V 11.3114 h 3.5198 v 5.7027 h 1.7152 l 4.0096,-5.7027 h 4.2769 l -4.4552,5.8807 z m -2.6952,7.3066 c 1.6708,0 3.0518,-0.3118 3.0518,-2.3836 0,-2.0271 -1.381,-2.4058 -3.0518,-2.4058 h -2.7175 v 4.7894 z m 19.0803,-13.1873 1.6708,3.5195 h 8.0416 l 1.5593,-3.5195 h 3.3857 l -7.1059,15.9049 H 99.2361 L 92.0188,11.3114 Z m 5.8587,12.9126 2.5838,-6.1631 h -5.2793 l 2.6731,6.1631 z m 18.0107,-12.9126 h 3.4974 v 15.9049 h -3.4974 z m 24.7831,0 h 2.9625 v 15.9494 h -2.9625 v -9.9201 l -7.1062,9.9201 h -4.0096 V 11.3114 h 3.0518 v 10.9893 z m 16.2513,6.3484 h 7.2618 v 3.0966 h -7.2618 v 3.5864 h 8.2196 v 2.9404 H 156.7219 V 11.3114 h 12.363 v 2.9403 h -8.977 z m 19.0579,-6.3484 h 6.8609 c 4.8561,0 7.2173,3.4305 7.2173,8.0416 0,5.2571 -3.0963,7.8633 -7.2173,7.8633 h -6.8609 z m 3.4973,12.9645 h 2.4948 c 3.4529,0 4.589,-2.0494 4.589,-5.2571 0,-3.5195 -1.938,-4.7671 -3.9651,-4.7671 h -3.1187 z"
       style="fill:#000000;fill-opacity:1;fill-rule:evenodd;stroke:none"
       id="path18" />
  </g>
</svg>
